<svg width="60" height="66" viewBox="0 0 60 66" fill="none" xmlns="http://www.w3.org/2000/svg">
<g clip-path="url(#clip0_46_359)">
<path d="M30.2466 29.0389C43.3319 29.0389 47.0426 32.3769 48.0946 34.315C48.4004 34.8815 49.216 34.9301 49.6115 34.4202C56.7841 25.1384 47.9315 9.04294 30.2466 9.04294C12.5454 9.04294 3.6928 25.1627 10.898 34.4445C11.2895 34.9503 12.101 34.9058 12.4109 34.3474C13.4792 32.4134 17.2103 29.0389 30.2466 29.0389Z" fill="black"/>
<path d="M30.2459 56.957C43.1738 53.0742 46.4602 43.879 47.2546 38.583C47.6337 36.0641 46.2062 33.6106 43.8593 32.7096C41.1576 31.6733 36.7905 30.6043 30.2459 30.6043C23.7013 30.6043 19.3302 31.6733 16.6325 32.7096C14.2857 33.6106 12.8582 36.06 13.2372 38.583C14.0356 43.879 17.318 53.0742 30.2459 56.957Z" fill="black"/>
</g>
<defs>
<clipPath id="clip0_46_359">
<rect width="60" height="65.8819" fill="white" transform="translate(0 0.0590515)"/>
</clipPath>
</defs>
</svg>
