<svg width="42" height="42" viewBox="0 0 42 42" fill="none" xmlns="http://www.w3.org/2000/svg">
<path d="M34.8814 37.5068H6.41845C6.20002 37.5068 6.02295 37.6839 6.02295 37.9023V38.5998C6.02295 38.8182 6.20002 38.9953 6.41845 38.9953H34.8814C35.0998 38.9953 35.2769 38.8182 35.2769 38.5998V37.9023C35.2769 37.6839 35.0998 37.5068 34.8814 37.5068Z" fill="black"/>
<path d="M38.8071 21.5957H2.49291C2.08261 21.5957 1.75 21.9283 1.75 22.3386V22.678C1.75 23.0883 2.08261 23.4209 2.49291 23.4209H38.8071C39.2174 23.4209 39.55 23.0883 39.55 22.678V22.3386C39.55 21.9283 39.2174 21.5957 38.8071 21.5957Z" fill="black"/>
<path d="M37.1233 21.5958H35.7498V18.7044C35.7498 10.5965 29.1545 3.99857 21.0466 3.99857C12.9388 3.99857 6.34086 10.5939 6.34086 18.7017V21.5931H4.96729V18.7017C4.96729 9.8376 12.1799 2.625 21.0466 2.625C29.9134 2.625 37.1233 9.8376 37.1233 18.7017V21.5931V21.5958Z" fill="black"/>
<path d="M16.5014 30.989H9.82324V34.626H16.5014V30.989Z" fill="black"/>
<path d="M24.1147 23.4211H17.4365V25.4815H24.1147V23.4211Z" fill="black"/>
<path d="M24.1147 30.989H17.4365V34.626H24.1147V30.989Z" fill="black"/>
<path d="M16.5014 23.4211H9.82324V25.4815H16.5014V23.4211Z" fill="black"/>
<path d="M24.1147 26.4167H17.4365V30.0538H24.1147V26.4167Z" fill="black"/>
<path d="M16.5014 26.4167H9.82324V30.0538H16.5014V26.4167Z" fill="black"/>
<path d="M8.88795 34.626V30.989H4.64697L5.75331 34.626H8.88795Z" fill="black"/>
<path d="M31.7279 30.989H25.0498V34.626H31.7279V30.989Z" fill="black"/>
<path d="M8.88791 26.4167H3.25732L4.36367 30.0538H8.88791V26.4167Z" fill="black"/>
<path d="M31.7279 26.4167H25.0498V30.0538H31.7279V26.4167Z" fill="black"/>
<path d="M8.88804 25.4815V23.4211H2.34619L2.97419 25.4815H8.88804Z" fill="black"/>
<path d="M32.6636 23.4211V25.4815H38.3262L38.9542 23.4211H32.6636Z" fill="black"/>
<path d="M8.88799 35.5613H6.03662L6.62988 37.5067H8.88799V35.5613Z" fill="black"/>
<path d="M32.6636 26.4167V30.0538H36.9366L38.043 26.4167H32.6636Z" fill="black"/>
<path d="M32.6636 35.5613V37.5067H34.6705L35.2611 35.5613H32.6636Z" fill="black"/>
<path d="M16.5014 35.5613H9.82324V37.5067H16.5014V35.5613Z" fill="black"/>
<path d="M24.1147 35.5613H17.4365V37.5067H24.1147V35.5613Z" fill="black"/>
<path d="M36.6534 30.989H32.6636V34.626H35.547L36.6534 30.989Z" fill="black"/>
<path d="M31.7279 35.5613H25.0498V37.5067H31.7279V35.5613Z" fill="black"/>
<path d="M31.7279 23.4211H25.0498V25.4815H31.7279V23.4211Z" fill="black"/>
</svg>
